HIERARCHY
ROOT Hips
{
	OFFSET 0.000000 0.000000 0.000000
	CHANNELS 6 Xposition Yposition Zposition Zrotation Yrotation Xrotation 
	JOINT LowerBack
	{
		OFFSET 0.000000 0.000000 0.000000
		CHANNELS 3 Zrotation Yrotation Xrotation
		JOINT Spine
		{
			OFFSET 0.028270 2.035590 -0.193380
			CHANNELS 3 Zrotation Yrotation Xrotation
			JOINT Spine1
			{
				OFFSET 0.056720 2.048850 -0.042750
				CHANNELS 3 Zrotation Yrotation Xrotation
				JOINT Neck
				{
					OFFSET 0.000000 0.000000 0.000000
					CHANNELS 3 Zrotation Yrotation Xrotation
					JOINT Neck1
					{
						OFFSET -0.054170 1.746240 0.172020
						CHANNELS 3 Zrotation Yrotation Xrotation
						JOINT Head
						{
							OFFSET 0.104070 1.761360 -0.123970
							CHANNELS 3 Zrotation Yrotation Xrotation
							End Site
							{
								OFFSET 0.000000 0.000000 0.000000
							}
						}
					}
				}
				JOINT LeftShoulder
				{
					OFFSET 0.000000 0.000000 0.000000
					CHANNELS 3 Zrotation Yrotation Xrotation
					JOINT LeftArm
					{
						OFFSET 3.362410 1.200890 -0.311210
						CHANNELS 3 Zrotation Yrotation Xrotation
						JOINT LeftForeArm
						{
							OFFSET 4.983000 -0.000000 -0.000000
							CHANNELS 3 Zrotation Yrotation Xrotation
							JOINT LeftHand
							{
								OFFSET 3.483560 -0.000000 -0.000000
								CHANNELS 3 Zrotation Yrotation Xrotation
								JOINT LeftFingerBase
								{
									OFFSET 0.000000 0.000000 0.000000
									CHANNELS 3 Zrotation Yrotation Xrotation
									JOINT LeftHandIndex1
									{
										OFFSET 0.715260 -0.000000 -0.000000
										CHANNELS 3 Zrotation Yrotation Xrotation
										End Site
										{
											OFFSET 0.000000 0.000000 0.000000
										}
									}
								}
								JOINT LThumb
								{
									OFFSET 0.000000 0.000000 0.000000
									CHANNELS 3 Zrotation Yrotation Xrotation
									End Site
									{
										OFFSET 0.000000 0.000000 0.000000
									}
								}
							}
						}
					}
				}
				JOINT RightShoulder
				{
					OFFSET 0.000000 0.000000 0.000000
					CHANNELS 3 Zrotation Yrotation Xrotation
					JOINT RightArm
					{
						OFFSET -3.136600 1.374050 -0.404650
						CHANNELS 3 Zrotation Yrotation Xrotation
						JOINT RightForeArm
						{
							OFFSET -5.241900 -0.000000 -0.000000
							CHANNELS 3 Zrotation Yrotation Xrotation
							JOINT RightHand
							{
								OFFSET -3.444170 -0.000000 -0.000000
								CHANNELS 3 Zrotation Yrotation Xrotation
								JOINT RightFingerBase
								{
									OFFSET 0.000000 0.000000 0.000000
									CHANNELS 3 Zrotation Yrotation Xrotation
									JOINT RightHandIndex1
									{
										OFFSET -0.622530 -0.000000 -0.000000
										CHANNELS 3 Zrotation Yrotation Xrotation
										End Site
										{
											OFFSET 0.000000 0.000000 0.000000
										}
									}
								}
								JOINT RThumb
								{
									OFFSET 0.000000 0.000000 0.000000
									CHANNELS 3 Zrotation Yrotation Xrotation
									End Site
									{
										OFFSET 0.000000 0.000000 0.000000
									}
								}
							}
						}
					}
				}
			}
		}
	}
}
}
MOTION
Frames: 13
Frame Time: 0.008333
1.478166 17.307248 1.538454 -179.094797 -58.936734 -168.446803 0.550357 -4.183253 -4.072353 -0.458365 -4.282977 -3.973685 -6.457226 -4.097136 -3.178373 8.486333 -10.017654 1.658538 -3.113043 -0.355112 2.605552 0.000000 0.000000 0.000000 20.036895 -2.935234 -4.706100 -54.545456 -46.713975 -25.718455 176.986579 -52.803610 179.744452 13.748486 -8.520992 -1.191044 -0.173449 1.221690 -0.000000 0.000000 0.000000 0.000000 0.000000 0.000000 0.000000 1.946899 -11.230438 -4.694168 85.429229 40.889656 23.769728 -177.009260 62.515425 179.695027 -21.783848 13.188732 -2.789391 0.290064 -1.036410 -0.000000 0.000000 0.000000 0.000000 0.000000 0.000000 0.000000 
1.476365 17.306359 1.561960 -179.287057 -59.385540 -168.116406 0.487439 -4.194074 -3.960319 -0.488574 -4.287835 -3.938934 -6.545619 -4.099967 -3.140811 8.639756 -10.090333 1.521265 -3.101165 -0.352474 2.565345 0.000000 0.000000 0.000000 20.038554 -2.911344 -4.780073 -54.556795 -47.444074 -25.230083 176.964670 -53.137052 179.741487 13.878375 -8.562435 -1.207662 -0.173595 1.223607 -0.000000 0.000000 0.000000 0.000000 0.000000 0.000000 0.000000 2.034516 -11.284578 -4.503186 85.015736 39.779721 23.397605 -177.064105 62.540962 179.698522 -21.631305 13.196206 -2.770172 0.288377 -1.032738 -0.000000 0.000000 0.000000 0.000000 0.000000 0.000000 0.000000 
1.474256 17.305504 1.585462 -179.503534 -59.943177 -167.737363 0.421164 -4.205848 -3.851933 -0.520081 -4.293605 -3.903321 -6.635365 -4.103698 -3.096690 8.819426 -10.191789 1.350666 -3.093716 -0.349642 2.515765 0.000000 0.000000 0.000000 20.073967 -2.881096 -4.864401 -54.627816 -48.241115 -24.657657 176.938788 -53.470166 179.738451 13.998853 -8.618231 -1.225483 -0.173009 1.226361 -0.000000 0.000000 0.000000 0.000000 0.000000 0.000000 0.000000 2.186287 -11.359901 -4.290300 84.518109 38.601160 22.970805 -177.138432 62.630376 179.702444 -21.469698 13.231804 -2.755242 0.286632 -1.028763 -0.000000 0.000000 0.000000 0.000000 0.000000 0.000000 0.000000 
1.471671 17.304719 1.608824 -179.751187 -60.620939 -167.299770 0.354586 -4.220171 -3.750615 -0.551886 -4.302195 -3.866785 -6.725216 -4.110327 -3.042302 9.025998 -10.329327 1.141650 -3.090500 -0.346544 2.455457 0.000000 0.000000 0.000000 20.134723 -2.837604 -4.958124 -54.757528 -49.110917 -23.999735 176.912878 -53.810978 179.735757 14.084740 -8.685069 -1.241803 -0.170916 1.229835 -0.000000 0.000000 0.000000 0.000000 0.000000 0.000000 0.000000 2.406122 -11.464914 -4.057232 83.938491 37.350325 22.492103 -177.233594 62.796367 179.706789 -21.307587 13.295676 -2.745398 0.285080 -1.024254 -0.000000 0.000000 0.000000 0.000000 0.000000 0.000000 0.000000 
1.468450 17.304073 1.631872 179.956863 -61.430501 -166.791576 0.291518 -4.238434 -3.658506 -0.582906 -4.315341 -3.829241 -6.814405 -4.121702 -2.974907 9.257963 -10.507700 0.891040 -3.090968 -0.343104 2.383605 0.000000 0.000000 0.000000 20.205847 -2.773908 -5.059868 -54.941410 -50.063453 -23.257760 176.890904 -54.174874 179.733734 14.117175 -8.758927 -1.254120 -0.166721 1.233829 -0.000000 0.000000 0.000000 0.000000 0.000000 0.000000 0.000000 2.694104 -11.606272 -3.806996 83.286822 36.018667 21.968870 -177.348749 63.047308 179.711519 -21.156221 13.387494 -2.742238 0.283960 -1.018959 -0.000000 0.000000 0.000000 0.000000 0.000000 0.000000 0.000000 
1.464046 17.303517 1.654295 179.607671 -62.389055 -166.193322 0.242667 -4.261566 -3.586349 -0.610697 -4.335079 -3.793083 -6.903230 -4.140069 -2.894319 9.505642 -10.721656 0.599626 -3.092589 -0.339191 2.300626 0.000000 0.000000 0.000000 20.262546 -2.687327 -5.166084 -55.165268 -51.106063 -22.435915 176.877048 -54.579796 179.732563 14.090301 -8.830605 -1.260830 -0.160317 1.237933 -0.000000 0.000000 0.000000 0.000000 0.000000 0.000000 0.000000 3.028444 -11.779891 -3.543883 82.589208 34.571859 21.403491 -177.477307 63.381377 179.716609 -21.021604 13.490562 -2.742765 0.283123 -1.012246 -0.000000 0.000000 0.000000 0.000000 0.000000 0.000000 0.000000 
1.458544 17.303073 1.675977 179.173274 -63.506361 -165.491547 0.209797 -4.289176 -3.525189 -0.635087 -4.360986 -3.757106 -6.992574 -4.165119 -2.802568 9.764886 -10.966877 0.269960 -3.094810 -0.334784 2.207173 0.000000 0.000000 0.000000 20.283248 -2.571287 -5.274607 -55.430007 -52.258950 -21.534699 176.873849 -55.051258 179.732269 14.004787 -8.898701 -1.261433 -0.151651 1.241949 -0.000000 0.000000 0.000000 0.000000 0.000000 0.000000 0.000000 3.406316 -11.982547 -3.272773 81.866440 32.994721 20.804946 -177.614202 63.793695 179.721891 -20.919947 13.607415 -2.749874 0.282727 -1.004008 -0.000000 0.000000 0.000000 0.000000 0.000000 0.000000 0.000000 
1.450973 17.302628 1.696721 178.633829 -64.803073 -164.657538 0.210282 -4.319997 -3.489216 -0.652653 -4.393539 -3.726356 -7.084634 -4.197706 -2.706910 10.016901 -11.218049 -0.088432 -3.093864 -0.329783 2.106153 0.000000 0.000000 0.000000 20.237580 -2.431291 -5.378780 -55.728691 -53.525726 -20.550905 176.884224 -55.607015 179.732631 13.881609 -8.953274 -1.256723 -0.141543 1.245440 -0.000000 0.000000 0.000000 0.000000 0.000000 0.000000 0.000000 3.784663 -12.186319 -2.999239 81.160151 31.221981 20.158145 -177.745724 64.262816 179.727243 -20.852449 13.710503 -2.758270 0.282032 -0.993523 -0.000000 0.000000 0.000000 0.000000 0.000000 0.000000 0.000000 
1.441251 17.302134 1.716422 177.941978 -66.288024 -163.658806 0.243963 -4.351498 -3.467213 -0.664076 -4.430008 -3.701101 -7.182111 -4.235337 -2.617414 10.252953 -11.451834 -0.464471 -3.089378 -0.324279 2.000526 0.000000 0.000000 0.000000 20.107210 -2.269855 -5.473990 -56.082161 -54.922138 -19.468097 176.908709 -56.268879 179.733285 13.745008 -8.995628 -1.248898 -0.130722 1.248328 -0.000000 0.000000 0.000000 0.000000 0.000000 0.000000 0.000000 4.152078 -12.363593 -2.727673 80.496295 29.217614 19.448158 -177.863066 64.769335 179.732387 -20.832060 13.797829 -2.769357 0.280753 -0.980785 -0.000000 0.000000 0.000000 0.000000 0.000000 0.000000 0.000000 
1.429228 17.301476 1.735044 177.032035 -67.972163 -162.440375 0.312751 -4.380486 -3.455122 -0.669566 -4.467303 -3.684281 -7.287859 -4.275335 -2.549036 10.460178 -11.631127 -0.841852 -3.080788 -0.318433 1.894785 0.000000 0.000000 0.000000 19.878717 -2.098394 -5.553401 -56.523600 -56.450454 -18.255935 176.947619 -57.053127 179.733734 13.627283 -9.026428 -1.241260 -0.120235 1.250581 -0.000000 0.000000 0.000000 0.000000 0.000000 0.000000 0.000000 4.487002 -12.468241 -2.461623 79.903132 26.927319 18.637689 -177.955216 65.284638 179.737034 -20.865708 13.858217 -2.781939 0.278248 -0.965730 -0.000000 0.000000 0.000000 0.000000 0.000000 0.000000 0.000000 
1.414197 17.300600 1.752666 175.820813 -69.867230 -160.915446 0.424742 -4.402321 -3.460026 -0.668021 -4.501615 -3.682350 -7.404433 -4.314606 -2.520955 10.620226 -11.702060 -1.198395 -3.067641 -0.312509 1.795162 0.000000 0.000000 0.000000 19.543223 -1.938018 -5.606759 -57.102106 -58.095884 -16.867440 177.002829 -57.964822 179.733457 13.564137 -9.042648 -1.236804 -0.111435 1.252160 -0.000000 0.000000 0.000000 0.000000 0.000000 0.000000 0.000000 4.756938 -12.431595 -2.203273 79.409075 24.275415 17.661643 -178.009868 65.770389 179.740920 -20.949477 13.870604 -2.791523 0.273444 -0.948244 -0.000000 0.000000 0.000000 0.000000 0.000000 0.000000 0.000000 
1.395943 17.299423 1.769496 174.157336 -71.975681 -158.937956 0.576271 -4.412246 -3.481954 -0.660587 -4.527855 -3.700447 -7.532865 -4.348904 -2.553631 10.721843 -11.608108 -1.509240 -3.052831 -0.307017 1.708465 0.000000 0.000000 0.000000 19.104396 -1.812801 -5.624432 -57.898660 -59.835672 -15.233846 177.076794 -59.003014 179.731928 13.587097 -9.050423 -1.239428 -0.105527 1.253364 -0.000000 0.000000 0.000000 0.000000 0.000000 0.000000 0.000000 4.955128 -12.180009 -1.952913 79.028365 21.211772 16.446219 -178.020484 66.188810 179.743777 -21.080533 13.841388 -2.798616 0.265620 -0.928996 -0.000000 0.000000 0.000000 0.000000 0.000000 0.000000 0.000000 
1.375169 17.298010 1.785644 171.731973 -74.285752 -156.217352 0.739919 -4.407875 -3.505357 -0.653014 -4.540965 -3.739217 -7.671955 -4.373902 -2.663789 10.766284 -11.308449 -1.753399 -3.043396 -0.302696 1.640149 0.000000 0.000000 0.000000 18.583152 -1.745814 -5.600421 -59.010004 -61.639383 -13.267842 177.171605 -60.160536 179.728885 13.711495 -9.055046 -1.251237 -0.103141 1.254417 -0.000000 0.000000 0.000000 0.000000 0.000000 0.000000 0.000000 5.116508 -11.656784 -1.707743 78.760657 17.734868 14.927273 -177.989705 66.520041 179.745439 -21.268901 13.779068 -2.806420 0.255099 -0.908620 -0.000000 0.000000 0.000000 0.000000 0.000000 0.000000 0.000000 
